<svg width="16" height="19" viewBox="0 0 16 19" fill="none" xmlns="http://www.w3.org/2000/svg">
<path d="M4.1875 5.875V4.1875C4.1875 2.04297 5.94531 0.25 8.125 0.25C10.2695 0.25 12.0625 2.04297 12.0625 4.1875V5.875H14.3125C15.2266 5.875 16 6.64844 16 7.5625V14.875C16 16.7383 14.4883 18.25 12.625 18.25H3.625C1.72656 18.25 0.25 16.7383 0.25 14.875V7.5625C0.25 6.64844 0.988281 5.875 1.9375 5.875H4.1875ZM5.875 5.875H10.375V4.1875C10.375 2.95703 9.35547 1.9375 8.125 1.9375C6.85938 1.9375 5.875 2.95703 5.875 4.1875V5.875ZM1.9375 7.5625V14.875C1.9375 15.8242 2.67578 16.5625 3.625 16.5625H12.625C13.5391 16.5625 14.3125 15.8242 14.3125 14.875V7.5625H12.0625V9.53125C12.0625 10.0234 11.6758 10.375 11.2188 10.375C10.7266 10.375 10.375 10.0234 10.375 9.53125V7.5625H5.875V9.53125C5.875 10.0234 5.48828 10.375 5.03125 10.375C4.53906 10.375 4.1875 10.0234 4.1875 9.53125V7.5625H1.9375Z" fill="#201B21"/>
</svg>
